<?xml version="1.0" encoding="utf-8"?>
<!-- Generator: Adobe Illustrator 29.6.1, SVG Export Plug-In . SVG Version: 9.03 Build 0)  -->
<svg version="1.0" id="Layer_1" xmlns="http://www.w3.org/2000/svg" xmlns:xlink="http://www.w3.org/1999/xlink" x="0px" y="0px"
	 viewBox="0 0 2000 1500" style="enable-background:new 0 0 2000 1500;" xml:space="preserve">
<style type="text/css">
	.st0{fill:#C81200;}
</style>
<g transform="translate(0.000000,1500.000000) scale(0.100000,-0.100000)">
	<path class="st0" d="M7572.63,14810.23c-377.06-47.12-786.43-257.7-1018.82-527.17c-80.03-94.24-3627.44-5240.82-3725.93-5407.22
		c-64.64-110.44-150.82-362.25-172.37-506.56c-12.31-83.94-15.39-1044.04-12.31-3394.24l4.62-3276.44l41.55-141.37
		c129.28-450.6,435.54-804.02,866.46-1001.34c175.45-80.99,327.81-123.69,515.57-145.78c172.37-19.14,7270.26-19.14,7433.4,0
		c298.57,36.81,601.75,159.04,823.37,329.85c67.72,51.54,1061.91,995.45,2210.01,2095.45
		c1885.28,1805.35,2096.13,2012.98,2182.31,2138.15c98.5,145.78,167.75,300.4,223.16,494.78l32.32,117.8v3968.54v3968.54
		l-41.55,141.37c-76.95,269.48-218.54,503.61-420.15,697.99c-260.09,251.81-589.44,404.95-961.88,449.13
		C15389.24,14830.84,7729.61,14829.37,7572.63,14810.23z M12620.57,13140.35c609.45-55.96,1120.4-156.09,1429.74-279.79l55.4-22.09
		v-1097.05c0-603.75-3.08-1097.05-7.69-1097.05c-3.08,0-58.48,19.14-121.58,44.18c-349.35,132.53-814.13,210.58-1380.49,229.72
		l-275.48,10.31v-97.19c0-54.49,4.62-98.66,12.31-98.66c6.16,0,104.65-10.31,218.54-23.56c880.31-97.19,1378.95-331.33,1591.33-751
		c96.96-189.96,123.12-318.07,123.12-602.28c1.54-210.58-4.62-270.95-33.86-381.39c-67.72-259.17-203.15-481.53-404.76-664.12
		c-363.21-329.85-892.62-512.45-1683.67-581.66c-235.47-20.62-1034.21-20.62-1337.4,0c-443.23,30.92-1024.98,111.91-1289.69,182.6
		c-147.75,39.76-397.06,138.42-406.3,161.98c-3.08,8.84-4.62,441.77-3.08,961.58l4.62,943.91l126.2-48.59
		c313.96-120.75,978.81-228.25,1555.93-251.81l249.32-10.31v89.83c0,50.07-4.62,91.3-12.31,91.3c-63.1,0-447.85,53.01-594.06,80.99
		c-452.47,88.35-831.06,256.22-1021.9,455.02c-204.69,212.05-310.88,493.31-335.5,893.84
		c-55.4,887.95,490.94,1527.04,1515.92,1771.48c233.93,55.96,483.25,91.3,855.69,117.8
		C11617.14,13180.11,12386.64,13162.44,12620.57,13140.35z"/>
</g>
</svg>
