<?xml version="1.0" encoding="utf-8"?>
<!-- Generator: Adobe Illustrator 29.6.1, SVG Export Plug-In . SVG Version: 9.03 Build 0)  -->
<svg version="1.0" id="Layer_1" xmlns="http://www.w3.org/2000/svg" xmlns:xlink="http://www.w3.org/1999/xlink" x="0px" y="0px"
	 viewBox="0 0 2000 1500" style="enable-background:new 0 0 2000 1500;" xml:space="preserve">
<style type="text/css">
	.st0{fill:#C81200;}
</style>
<g transform="translate(0.000000,1500.000000) scale(0.100000,-0.100000)">
	<path class="st0" d="M8545,12389c-245-32-511-175-662-358c-52-64-2357-3559-2421-3672c-42-75-98-246-112-344c-8-57-10-709-8-2305
		l3-2225l27-96c84-306,283-546,563-680c114-55,213-84,335-99c112-13,4724-13,4830,0c194,25,391,108,535,224c44,35,690,676,1436,1423
		c1225,1226,1362,1367,1418,1452c64,99,109,204,145,336l21,80v2695v2695l-27,96c-50,183-142,342-273,474c-169,171-383,275-625,305
		C13624,12403,8647,12402,8545,12389z M11825,11255c396-38,728-106,929-190l36-15v-745c0-410-2-745-5-745c-2,0-38,13-79,30
		c-227,90-529,143-897,156l-179,7v-66c0-37,3-67,8-67c4,0,68-7,142-16c572-66,896-225,1034-510c63-129,80-216,80-409
		c1-143-3-184-22-259c-44-176-132-327-263-451c-236-224-580-348-1094-395c-153-14-672-14-869,0c-288,21-666,76-838,124
		c-96,27-258,94-264,110c-2,6-3,300-2,653l3,641l82-33c204-82,636-155,1011-171l162-7v61c0,34-3,62-8,62c-41,0-291,36-386,55
		c-294,60-540,174-664,309c-133,144-202,335-218,607c-36,603,319,1037,985,1203c152,38,314,62,556,80
		C11173,11282,11673,11270,11825,11255z"/>
</g>
</svg>
